<?xml version="1.0" ?><!DOCTYPE svg  PUBLIC '-//W3C//DTD SVG 1.1//EN'  'http://www.w3.org/Graphics/SVG/1.1/DTD/svg11.dtd'><svg enable-background="new 0 0 512 512" id="Layer_1" version="1.1" viewBox="0 0 512 512" xml:space="preserve" xmlns="http://www.w3.org/2000/svg" xmlns:xlink="http://www.w3.org/1999/xlink"><g><path d="M5.5,256C9.8,155.6,53.8,78.8,143.9,31.8c90.8-47.4,204.2-30.2,278.9,40c44.6,42,71.4,93.5,78.3,154.3   c8.7,77.2-13.3,145.3-66.3,202.5c-40.1,43.2-89.8,69-148.3,76.2C210,514.2,142.7,492.6,86,440.4C41,399,15.5,347.2,7.6,286.7   C6.3,276.6,6,266.4,5.5,256z M254.5,25.1C130.3,24.7,26.9,125.9,25.5,253.5C24,383.6,127.9,486.2,252,487.4   c125.8,1.2,230.6-100.8,231.2-229.2C483.9,128.7,381.7,25.1,254.5,25.1z" fill="#09CC49"/><path d="M198.7,152.2c15.8,0,31.7-0.1,47.5,0c7.5,0,12.7-3.7,16-9.8c9-16.5,17.5-33.3,26.3-49.9   c3.3-6.2,7.5-9.9,15.6-9.6c17,0.7,34,0.3,51,0.1c3.4,0,4.5,0.7,4.5,4.3c-0.2,18.5-0.1,37-0.1,55.5c0,2.2-0.5,4.2-1.6,6.2   c-19.8,37.8-39.6,75.7-59.4,113.6c-3.2,6.2-0.4,10.8,6.8,10.8c16.5,0,33,0.1,49.5-0.1c3.6,0,4.8,0.7,4.8,4.6c-0.2,26-0.2,52,0,78   c0,3.6-1.1,4.3-4.5,4.3c-32.3-0.1-64.6-0.1-97-0.1c-7.2,0-12.3,3.7-15.5,9.6c-9.1,16.8-17.8,33.8-26.8,50.7c-3,5.7-7,9.2-14.4,9   c-17.1-0.6-34.3-0.3-51.5-0.1c-3.2,0-4.7-0.4-4.6-4.2c0.2-18.7,0.1-37.3,0.1-56c0-2.4,0.7-4.5,1.8-6.6   c19.8-37.8,39.6-75.7,59.4-113.6c2.6-4.9-0.5-9.9-6.1-9.9c-16.7-0.1-33.3-0.2-50,0.1c-4.1,0.1-5.3-1-5.3-5.2   c0.2-25.7,0.2-51.3,0-77c0-3.6,0.7-4.8,4.6-4.8C166.1,152.4,182.4,152.2,198.7,152.2z" fill="#06CB47"/></g></svg>